<?xml version="1.0" encoding="utf-8"?>
<!-- Generator: Adobe Illustrator 21.0.2, SVG Export Plug-In . SVG Version: 6.00 Build 0)  -->
<svg version="1.1" id="Capa_1" xmlns="http://www.w3.org/2000/svg" xmlns:xlink="http://www.w3.org/1999/xlink" x="0px" y="0px"
	 viewBox="0 0 231 221.4" style="enable-background:new 0 0 231 221.4;" xml:space="preserve">
<style type="text/css">
	.st0{fill:none;}
	.st1{fill:#1DCF65;}
	.st2{fill:url(#svg_3_1_);}
	.st3{fill:#FFFFFF;}
	.st4{fill:#4C4C4D;}
</style>
<rect id="backgroundrect" y="0" class="st0" width="231" height="221.4"/>
<g>
	<title>Layer 1</title>
	<g id="svg_1">
		<path id="svg_2" class="st1" d="M215.7,170.6c0.2,2.3-1.6,4.3-4,4.3H18.9c-2.3,0-4.2-2-4-4.3l13.8-167c0.2-2.1,1.9-3.7,4-3.7
			h164.6c2.1,0,3.8,1.6,4,3.7L215.7,170.6z"/>
		
			<linearGradient id="svg_3_1_" gradientUnits="userSpaceOnUse" x1="-302.8803" y1="406.5295" x2="-303.528" y2="407.2234" gradientTransform="matrix(231.1574 0 0 -209.998 70197.9922 85560.5781)">
			<stop  offset="0" style="stop-color:#52D67A"/>
			<stop  offset="1" style="stop-color:#5AEE87"/>
		</linearGradient>
		<path id="svg_3" class="st2" d="M231.1,214.2c0.2,2.9-2.1,5.4-5,5.4H5c-2.9,0-5.2-2.5-5-5.4l15.9-200c0.2-2.6,2.4-4.6,5-4.6h188.7
			c2.6,0,4.8,2,5,4.6L231.1,214.2z"/>
	</g>
	<g id="svg_17">
		<g id="svg_18">
			<path id="svg_19" class="st3" d="M111.2,156.2C82.4,156.2,59,128,59,93.5c0-1.8,1.5-3.3,3.3-3.3c1.8,0,3.3,1.5,3.3,3.3
				c0,31,20.5,56.2,45.7,56.2s45.7-25.2,45.7-56.2c0-1.8,1.5-3.3,3.3-3.3s3.3,1.5,3.3,3.3C163.4,128,140,156.2,111.2,156.2z"/>
		</g>
		<g id="svg_20">
			<path id="svg_21" class="st3" d="M143.4,92.6c-0.8,0-1.7-0.3-2.3-1c-1.3-1.3-1.3-3.3,0-4.6l16.9-16.9c0.6-0.6,1.4-1,2.3-1l0,0
				c0.9,0,1.7,0.3,2.3,1l16.7,16.7c1.3,1.3,1.3,3.3,0,4.6c-1.3,1.3-3.3,1.3-4.6,0l-14.4-14.4l-14.6,14.6
				C145,92.3,144.2,92.6,143.4,92.6z"/>
		</g>
	</g>
</g>
<g>
	<rect x="-1.2" y="-5" class="st4" width="232.9" height="232"/>
	<g>
		<polygon class="st3" points="146.4,186 206.3,43.8 169.6,43.8 146.4,96.9 121.3,43.8 98.6,83.7 		"/>
		<polygon class="st3" points="113.3,150.8 63.7,43.8 24,43.8 89.7,186 		"/>
	</g>
</g>
</svg>
